<svg width="90" height="60" viewBox="0 0 90 60" fill="none" xmlns="http://www.w3.org/2000/svg">
<path d="M25.2784 27.3584L28.6782 32.798" stroke="white"/>
<g clip-path="url(#clip0_232_1670)">
<path d="M20.6054 9L11 14.6503L20.6054 20.3006L30.2111 14.6503L20.6054 9Z" fill="#50DBD9"/>
<path d="M20.6055 20.3007V31.6014L30.2111 25.951V14.6504L20.6055 20.3007Z" fill="#1AA8A8"/>
<path d="M11 14.6504V25.951L20.6054 31.6014V20.3007L11 14.6504Z" fill="#0F5353"/>
</g>
<path d="M64 28L61 33" stroke="white"/>
<g clip-path="url(#clip1_232_1670)">
<path d="M57.3232 29.3982L47.7178 35.0485L57.3232 40.6988L66.9289 35.0485L57.3232 29.3982Z" fill="#50DBD9"/>
<path d="M57.3232 40.6989V51.9995L66.9289 46.3492V35.0486L57.3232 40.6989Z" fill="#1AA8A8"/>
<path d="M47.7178 35.0486V46.3492L57.3232 51.9995V40.6989L47.7178 35.0486Z" fill="#0F5353"/>
</g>
<path d="M30 20H60" stroke="white"/>
<mask id="path-10-inside-1_232_1670" fill="white">
<path d="M54.6891 14.6504V25.9512L45.0836 31.6016L35.4781 25.9512V14.6504L45.0836 9L54.6891 14.6504Z"/>
</mask>
<path d="M54.6891 14.6504V25.9512L45.0836 31.6016L35.4781 25.9512V14.6504L45.0836 9L54.6891 14.6504Z" fill="#0F5353"/>
<path d="M54.6891 14.6504H55.6891V14.0785L55.1961 13.7885L54.6891 14.6504ZM54.6891 25.9512L55.1961 26.8131L55.6891 26.5231V25.9512H54.6891ZM45.0836 31.6016L44.5766 32.4635L45.0836 32.7617L45.5906 32.4635L45.0836 31.6016ZM35.4781 25.9512H34.4781V26.5231L34.9711 26.8131L35.4781 25.9512ZM35.4781 14.6504L34.9711 13.7885L34.4781 14.0785V14.6504H35.4781ZM45.0836 9L45.5906 8.13807L45.0836 7.83981L44.5766 8.13807L45.0836 9ZM54.6891 14.6504H53.6891V25.9512H54.6891H55.6891V14.6504H54.6891ZM54.6891 25.9512L54.1821 25.0892L44.5766 30.7396L45.0836 31.6016L45.5906 32.4635L55.1961 26.8131L54.6891 25.9512ZM45.0836 31.6016L45.5906 30.7396L35.9852 25.0892L35.4781 25.9512L34.9711 26.8131L44.5766 32.4635L45.0836 31.6016ZM35.4781 25.9512H36.4781V14.6504H35.4781H34.4781V25.9512H35.4781ZM35.4781 14.6504L35.9852 15.5123L45.5906 9.86193L45.0836 9L44.5766 8.13807L34.9711 13.7885L35.4781 14.6504ZM45.0836 9L44.5766 9.86193L54.1821 15.5123L54.6891 14.6504L55.1961 13.7885L45.5906 8.13807L45.0836 9Z" fill="white" mask="url(#path-10-inside-1_232_1670)"/>
<mask id="path-12-inside-2_232_1670" fill="white">
<path d="M79.1693 14.6504V25.9512L69.5629 31.6016L59.9574 25.9512V14.6504L69.5629 9L79.1693 14.6504Z"/>
</mask>
<path d="M79.1693 14.6504H80.1693V14.0784L79.6763 13.7884L79.1693 14.6504ZM79.1693 25.9512L79.6763 26.8131L80.1693 26.5231V25.9512H79.1693ZM69.5629 31.6016L69.0558 32.4635L69.5628 32.7617L70.0699 32.4635L69.5629 31.6016ZM59.9574 25.9512H58.9574V26.5231L59.4504 26.8131L59.9574 25.9512ZM59.9574 14.6504L59.4504 13.7885L58.9574 14.0785V14.6504H59.9574ZM69.5629 9L70.0699 8.13805L69.5628 7.83983L69.0558 8.13807L69.5629 9ZM79.1693 14.6504H78.1693V25.9512H79.1693H80.1693V14.6504H79.1693ZM79.1693 25.9512L78.6623 25.0892L69.0559 30.7396L69.5629 31.6016L70.0699 32.4635L79.6763 26.8131L79.1693 25.9512ZM69.5629 31.6016L70.0699 30.7396L60.4644 25.0892L59.9574 25.9512L59.4504 26.8131L69.0558 32.4635L69.5629 31.6016ZM59.9574 25.9512H60.9574V14.6504H59.9574H58.9574V25.9512H59.9574ZM59.9574 14.6504L60.4644 15.5123L70.0699 9.86193L69.5629 9L69.0558 8.13807L59.4504 13.7885L59.9574 14.6504ZM69.5629 9L69.0559 9.86195L78.6623 15.5123L79.1693 14.6504L79.6763 13.7884L70.0699 8.13805L69.5629 9Z" fill="white" mask="url(#path-12-inside-2_232_1670)"/>
<mask id="path-14-inside-3_232_1670" fill="white">
<path d="M42.4515 35.0486V46.3494L32.8451 51.9998L23.2396 46.3494V35.0486L32.8451 29.3982L42.4515 35.0486Z"/>
</mask>
<path d="M42.4515 35.0486H43.4515V34.4766L42.9585 34.1866L42.4515 35.0486ZM42.4515 46.3494L42.9585 47.2113L43.4515 46.9213V46.3494H42.4515ZM32.8451 51.9998L32.3381 52.8617L32.8451 53.1599L33.3521 52.8617L32.8451 51.9998ZM23.2396 46.3494H22.2396V46.9213L22.7326 47.2113L23.2396 46.3494ZM23.2396 35.0486L22.7326 34.1867L22.2396 34.4766V35.0486H23.2396ZM32.8451 29.3982L33.3521 28.5362L32.8451 28.238L32.3381 28.5363L32.8451 29.3982ZM42.4515 35.0486H41.4515V46.3494H42.4515H43.4515V35.0486H42.4515ZM42.4515 46.3494L41.9445 45.4874L32.3381 51.1378L32.8451 51.9998L33.3521 52.8617L42.9585 47.2113L42.4515 46.3494ZM32.8451 51.9998L33.3521 51.1378L23.7467 45.4874L23.2396 46.3494L22.7326 47.2113L32.3381 52.8617L32.8451 51.9998ZM23.2396 46.3494H24.2396V35.0486H23.2396H22.2396V46.3494H23.2396ZM23.2396 35.0486L23.7467 35.9105L33.3521 30.2601L32.8451 29.3982L32.3381 28.5363L22.7326 34.1867L23.2396 35.0486ZM32.8451 29.3982L32.3381 30.2601L41.9445 35.9105L42.4515 35.0486L42.9585 34.1866L33.3521 28.5362L32.8451 29.3982Z" fill="white" mask="url(#path-14-inside-3_232_1670)"/>
<path d="M42.2783 40.2783H47.718" stroke="white"/>
<defs>
<clipPath id="clip0_232_1670">
<rect width="19.2111" height="22.6013" fill="white" transform="translate(11 9)"/>
</clipPath>
<clipPath id="clip1_232_1670">
<rect width="19.2111" height="22.6013" fill="white" transform="translate(47.7178 29.3982)"/>
</clipPath>
</defs>
</svg>
